{
  "accessors": [
    {
      "bufferView": 2,
      "componentType": 5126,
      "count": 65532,
      "max": [
        0.12886019051074982,
        0.12240733206272125,
        0.5242087841033936
      ],
      "min": [
        -0.12886017560958862,
        -0.11861657351255417,
        0.011469806544482708
      ],
      "type": "VEC3"
    },
    {
      "bufferView": 2,
      "byteOffset": 786384,
      "componentType": 5126,
      "count": 65532,
      "max": [
        1.0,
        1.0,
        1.0
      ],
      "min": [
        -1.0,
        -1.0,
        -1.0
      ],
      "type": "VEC3"
    },
    {
      "bufferView": 3,
      "componentType": 5126,
      "count": 65532,
      "max": [
        0.9999998807907104,
        0.9999992847442627,
        1.0,
        1.0
      ],
      "min": [
        -1.0,
        -0.9999997019767761,
        -1.0,
        -1.0
      ],
      "type": "VEC4"
    },
    {
      "bufferView": 1,
      "componentType": 5126,
      "count": 65532,
      "max": [
        0.9994800686836243,
        0.973744809627533
      ],
      "min": [
        0.0005198494764044881,
        0.0005198494764044881
      ],
      "type": "VEC2"
    },
    {
      "bufferView": 0,
      "componentType": 5125,
      "count": 360693,
      "type": "SCALAR"
    },
    {
      "bufferView": 2,
      "byteOffset": 1572768,
      "componentType": 5126,
      "count": 65532,
      "max": [
        0.12803655862808228,
        0.12240733206272125,
        0.5242087841033936
      ],
      "min": [
        -0.12769033014774323,
        -0.11861653625965118,
        0.011469838209450245
      ],
      "type": "VEC3"
    },
    {
      "bufferView": 2,
      "byteOffset": 2359152,
      "componentType": 5126,
      "count": 65532,
      "max": [
        1.0,
        1.0,
        1.0
      ],
      "min": [
        -1.0,
        -1.0,
        -1.0
      ],
      "type": "VEC3"
    },
    {
      "bufferView": 3,
      "byteOffset": 1048512,
      "componentType": 5126,
      "count": 65532,
      "max": [
        1.0,
        1.0,
        1.0,
        1.0
      ],
      "min": [
        -1.0,
        -1.0,
        -0.9999999403953552,
        -1.0
      ],
      "type": "VEC4"
    },
    {
      "bufferView": 1,
      "byteOffset": 524256,
      "componentType": 5126,
      "count": 65532,
      "max": [
        0.9978829622268677,
        0.947731614112854
      ],
      "min": [
        0.0005198494764044881,
        0.0005198494764044881
      ],
      "type": "VEC2"
    },
    {
      "bufferView": 0,
      "byteOffset": 1442772,
      "componentType": 5125,
      "count": 360285,
      "type": "SCALAR"
    },
    {
      "bufferView": 2,
      "byteOffset": 3145536,
      "componentType": 5126,
      "count": 29413,
      "max": [
        0.11649629473686218,
        0.11859944462776184,
        0.30737045407295227
      ],
      "min": [
        -0.01545733492821455,
        -0.11859944462776184,
        0.055659450590610504
      ],
      "type": "VEC3"
    },
    {
      "bufferView": 2,
      "byteOffset": 3498492,
      "componentType": 5126,
      "count": 29413,
      "max": [
        1.0,
        1.0,
        1.0
      ],
      "min": [
        -1.0,
        -1.0,
        -1.0
      ],
      "type": "VEC3"
    },
    {
      "bufferView": 3,
      "byteOffset": 2097024,
      "componentType": 5126,
      "count": 29413,
      "max": [
        0.9999881386756897,
        0.9999443292617798,
        0.9999996423721313,
        1.0
      ],
      "min": [
        -0.999994158744812,
        -0.9999879598617554,
        -0.9999923706054688,
        -1.0
      ],
      "type": "VEC4"
    },
    {
      "bufferView": 1,
      "byteOffset": 1048512,
      "componentType": 5126,
      "count": 29413,
      "max": [
        0.9176116585731506,
        0.9417425394058228
      ],
      "min": [
        0.11739396303892136,
        0.7176564931869507
      ],
      "type": "VEC2"
    },
    {
      "bufferView": 0,
      "byteOffset": 2883912,
      "componentType": 5125,
      "count": 166353,
      "type": "SCALAR"
    },
    {
      "bufferView": 2,
      "byteOffset": 3851448,
      "componentType": 5126,
      "count": 65532,
      "max": [
        0.1870328038930893,
        0.1870131939649582,
        0.14900632202625275
      ],
      "min": [
        -0.1870328038930893,
        -0.07291220873594284,
        0.00022912163694854826
      ],
      "type": "VEC3"
    },
    {
      "bufferView": 2,
      "byteOffset": 4637832,
      "componentType": 5126,
      "count": 65532,
      "max": [
        0.9999977350234985,
        0.9999997615814209,
        1.0
      ],
      "min": [
        -0.9999549984931946,
        -0.9999550580978394,
        -1.0
      ],
      "type": "VEC3"
    },
    {
      "bufferView": 3,
      "byteOffset": 2567632,
      "componentType": 5126,
      "count": 65532,
      "max": [
        0.9999642968177795,
        0.9999994039535522,
        0.9999992847442627,
        1.0
      ],
      "min": [
        -0.999995768070221,
        -0.999999463558197,
        -0.9999984502792358,
        -1.0
      ],
      "type": "VEC4"
    },
    {
      "bufferView": 1,
      "byteOffset": 1283816,
      "componentType": 5126,
      "count": 65532,
      "max": [
        0.988020122051239,
        0.9922851324081421
      ],
      "min": [
        0.001296303584240377,
        0.001296303584240377
      ],
      "type": "VEC2"
    },
    {
      "bufferView": 0,
      "byteOffset": 3549324,
      "componentType": 5125,
      "count": 350781,
      "type": "SCALAR"
    },
    {
      "bufferView": 2,
      "byteOffset": 5424216,
      "componentType": 5126,
      "count": 65532,
      "max": [
        0.1870328038930893,
        0.18072594702243805,
        0.14900632202625275
      ],
      "min": [
        -0.18139466643333435,
        -0.1870131939649582,
        0.00022912163694854826
      ],
      "type": "VEC3"
    },
    {
      "bufferView": 2,
      "byteOffset": 6210600,
      "componentType": 5126,
      "count": 65532,
      "max": [
        0.9999977350234985,
        0.9999997615814209,
        1.0
      ],
      "min": [
        -0.9999977350234985,
        -0.9999997615814209,
        -1.0
      ],
      "type": "VEC3"
    },
    {
      "bufferView": 3,
      "byteOffset": 3616144,
      "componentType": 5126,
      "count": 65532,
      "max": [
        0.9999644160270691,
        0.9999606013298035,
        0.9999998807907104,
        1.0
      ],
      "min": [
        -0.9999911785125732,
        -0.9999393820762634,
        -0.9999997615814209,
        -1.0
      ],
      "type": "VEC4"
    },
    {
      "bufferView": 1,
      "byteOffset": 1808072,
      "componentType": 5126,
      "count": 65532,
      "max": [
        0.9772080779075623,
        0.9922849535942078
      ],
      "min": [
        0.001934422180056572,
        0.001296303584240377
      ],
      "type": "VEC2"
    },
    {
      "bufferView": 0,
      "byteOffset": 4952448,
      "componentType": 5125,
      "count": 350511,
      "type": "SCALAR"
    },
    {
      "bufferView": 2,
      "byteOffset": 6996984,
      "componentType": 5126,
      "count": 65532,
      "max": [
        0.18697711825370789,
        0.18644103407859802,
        0.14900632202625275
      ],
      "min": [
        -0.1870328038930893,
        -0.1870131939649582,
        0.00022912163694854826
      ],
      "type": "VEC3"
    },
    {
      "bufferView": 2,
      "byteOffset": 7783368,
      "componentType": 5126,
      "count": 65532,
      "max": [
        0.9999997615814209,
        0.9999997615814209,
        1.0
      ],
      "min": [
        -0.9999997019767761,
        -0.9999997615814209,
        -1.0
      ],
      "type": "VEC3"
    },
    {
      "bufferView": 3,
      "byteOffset": 4664656,
      "componentType": 5126,
      "count": 65532,
      "max": [
        0.999942421913147,
        0.9999994039535522,
        0.9999997615814209,
        1.0
      ],
      "min": [
        -0.9999980330467224,
        -0.9999980926513672,
        -0.9999999403953552,
        -1.0
      ],
      "type": "VEC4"
    },
    {
      "bufferView": 1,
      "byteOffset": 2332328,
      "componentType": 5126,
      "count": 65532,
      "max": [
        0.9979133605957031,
        0.9938784241676331
      ],
      "min": [
        0.001296303584240377,
        0.001296303584240377
      ],
      "type": "VEC2"
    },
    {
      "bufferView": 0,
      "byteOffset": 6354492,
      "componentType": 5125,
      "count": 345846,
      "type": "SCALAR"
    },
    {
      "bufferView": 2,
      "byteOffset": 8569752,
      "componentType": 5126,
      "count": 65532,
      "max": [
        0.17947888374328613,
        0.13977894186973572,
        0.14728134870529175
      ],
      "min": [
        -0.16159680485725403,
        -0.18644103407859802,
        0.0019069904228672385
      ],
      "type": "VEC3"
    },
    {
      "bufferView": 2,
      "byteOffset": 9356136,
      "componentType": 5126,
      "count": 65532,
      "max": [
        1.0,
        1.0,
        1.0
      ],
      "min": [
        -1.0,
        -1.0,
        -1.0
      ],
      "type": "VEC3"
    },
    {
      "bufferView": 3,
      "byteOffset": 5713168,
      "componentType": 5126,
      "count": 65532,
      "max": [
        1.0,
        1.0,
        1.0,
        1.0
      ],
      "min": [
        -1.0,
        -1.0,
        -0.9999999403953552,
        -1.0
      ],
      "type": "VEC4"
    },
    {
      "bufferView": 1,
      "byteOffset": 2856584,
      "componentType": 5126,
      "count": 65532,
      "max": [
        0.9981698989868164,
        0.9908306002616882
      ],
      "min": [
        0.001296303584240377,
        0.001296303584240377
      ],
      "type": "VEC2"
    },
    {
      "bufferView": 0,
      "byteOffset": 7737876,
      "componentType": 5125,
      "count": 344214,
      "type": "SCALAR"
    },
    {
      "bufferView": 2,
      "byteOffset": 10142520,
      "componentType": 5126,
      "count": 65532,
      "max": [
        0.18697711825370789,
        0.179995596408844,
        0.14728134870529175
      ],
      "min": [
        -0.18697711825370789,
        -0.1870131939649582,
        0.0019069904228672385
      ],
      "type": "VEC3"
    },
    {
      "bufferView": 2,
      "byteOffset": 10928904,
      "componentType": 5126,
      "count": 65532,
      "max": [
        1.0,
        1.0,
        1.0
      ],
      "min": [
        -1.0,
        -1.0,
        -1.0
      ],
      "type": "VEC3"
    },
    {
      "bufferView": 3,
      "byteOffset": 6761680,
      "componentType": 5126,
      "count": 65532,
      "max": [
        0.9999980330467224,
        0.9999997615814209,
        1.0,
        1.0
      ],
      "min": [
        -0.999959409236908,
        -0.9999988675117493,
        -0.9999999403953552,
        -1.0
      ],
      "type": "VEC4"
    },
    {
      "bufferView": 1,
      "byteOffset": 3380840,
      "componentType": 5126,
      "count": 65532,
      "max": [
        0.9981698989868164,
        0.9902721047401428
      ],
      "min": [
        0.001296303584240377,
        0.005248229950666428
      ],
      "type": "VEC2"
    },
    {
      "bufferView": 0,
      "byteOffset": 9114732,
      "componentType": 5125,
      "count": 342405,
      "type": "SCALAR"
    },
    {
      "bufferView": 2,
      "byteOffset": 11715288,
      "componentType": 5126,
      "count": 41775,
      "max": [
        0.18057627975940704,
        0.1870131939649582,
        0.14728134870529175
      ],
      "min": [
        -0.18697711825370789,
        0.030126286670565605,
        0.001904229517094791
      ],
      "type": "VEC3"
    },
    {
      "bufferView": 2,
      "byteOffset": 12216588,
      "componentType": 5126,
      "count": 41775,
      "max": [
        1.0,
        1.0,
        1.0
      ],
      "min": [
        -1.0,
        -1.0,
        -1.0
      ],
      "type": "VEC3"
    },
    {
      "bufferView": 3,
      "byteOffset": 7810192,
      "componentType": 5126,
      "count": 41775,
      "max": [
        0.9999980330467224,
        0.9999733567237854,
        1.0,
        1.0
      ],
      "min": [
        -0.9998283386230469,
        -0.9999980926513672,
        -0.9999999403953552,
        -1.0
      ],
      "type": "VEC4"
    },
    {
      "bufferView": 1,
      "byteOffset": 3905096,
      "componentType": 5126,
      "count": 41775,
      "max": [
        0.9987037777900696,
        0.9938786625862122
      ],
      "min": [
        0.001296303584240377,
        0.001461849082261324
      ],
      "type": "VEC2"
    },
    {
      "bufferView": 0,
      "byteOffset": 10484352,
      "componentType": 5125,
      "count": 217251,
      "type": "SCALAR"
    },
    {
      "bufferView": 2,
      "byteOffset": 12717888,
      "componentType": 5126,
      "count": 1926,
      "max": [
        0.013538502156734467,
        -0.0009152590646408498,
        0.09061786532402039
      ],
      "min": [
        -0.013776839710772038,
        -0.013602696359157562,
        -0.0135079026222229
      ],
      "type": "VEC3"
    },
    {
      "bufferView": 2,
      "byteOffset": 12741000,
      "componentType": 5126,
      "count": 1926,
      "max": [
        0.7730147838592529,
        -0.634376049041748,
        0.7730244398117065
      ],
      "min": [
        -0.7730154991149902,
        -1.0,
        -0.7730146646499634
      ],
      "type": "VEC3"
    },
    {
      "bufferView": 3,
      "byteOffset": 8478592,
      "componentType": 5126,
      "count": 1926,
      "max": [
        -0.4291665256023407,
        0.7724012732505798,
        0.7387903928756714,
        1.0
      ],
      "min": [
        -0.997040331363678,
        -0.7723817229270935,
        -0.8182812929153442,
        -1.0
      ],
      "type": "VEC4"
    },
    {
      "bufferView": 1,
      "byteOffset": 4239296,
      "componentType": 5126,
      "count": 1926,
      "max": [
        0.9254655241966248,
        0.9079166054725647
      ],
      "min": [
        0.5285228490829468,
        0.29710525274276733
      ],
      "type": "VEC2"
    },
    {
      "bufferView": 0,
      "byteOffset": 11353356,
      "componentType": 5125,
      "count": 10368,
      "type": "SCALAR"
    }
  ],
  "asset": {
    "extras": {
      "author": "DealwithTheDevil (https://sketchfab.com/DealwithTheDevil)",
      "license": "CC-BY-4.0 (http://creativecommons.org/licenses/by/4.0/)",
      "source": "https://sketchfab.com/3d-models/spiderbot-roberto-976ee0a3e4a441e0a01de1fd977cd954",
      "title": "spiderbot-Roberto"
    },
    "generator": "Sketchfab-11.97.0",
    "version": "2.0"
  },
  "bufferViews": [
    {
      "buffer": 0,
      "byteLength": 11394828,
      "name": "floatBufferViews",
      "target": 34963
    },
    {
      "buffer": 0,
      "byteLength": 4254704,
      "byteOffset": 11394828,
      "byteStride": 8,
      "name": "floatBufferViews",
      "target": 34962
    },
    {
      "buffer": 0,
      "byteLength": 12764112,
      "byteOffset": 15649532,
      "byteStride": 12,
      "name": "floatBufferViews",
      "target": 34962
    },
    {
      "buffer": 0,
      "byteLength": 8509408,
      "byteOffset": 28413644,
      "byteStride": 16,
      "name": "floatBufferViews",
      "target": 34962
    }
  ],
  "buffers": [
    {
      "byteLength": 36923052,
      "uri": "scene.bin"
    }
  ],
  "extensionsUsed": [
    "KHR_texture_transform"
  ],
  "images": [
    {
      "uri": "textures/Body_baseColor.png"
    },
    {
      "uri": "textures/Body_metallicRoughness.png"
    },
    {
      "uri": "textures/Body_emissive.png"
    },
    {
      "uri": "textures/Body_normal.png"
    },
    {
      "uri": "textures/Legs_baseColor.png"
    },
    {
      "uri": "textures/Legs_metallicRoughness.png"
    },
    {
      "uri": "textures/Legs_emissive.png"
    }
  ],
  "materials": [
    {
      "doubleSided": true,
      "emissiveFactor": [
        1.0,
        1.0,
        1.0
      ],
      "emissiveTexture": {
        "index": 2
      },
      "name": "Body",
      "normalTexture": {
        "index": 3
      },
      "pbrMetallicRoughness": {
        "baseColorTexture": {
          "index": 0
        },
        "metallicRoughnessTexture": {
          "index": 1
        }
      }
    },
    {
      "doubleSided": true,
      "emissiveFactor": [
        1.0,
        1.0,
        1.0
      ],
      "emissiveTexture": {
        "index": 6
      },
      "name": "Legs",
      "normalTexture": {
        "index": 3
      },
      "occlusionTexture": {
        "index": 5
      },
      "pbrMetallicRoughness": {
        "baseColorTexture": {
          "extensions": {
            "KHR_texture_transform": {
              "scale": [
                1.000214506052654,
                0.9999999812853569
              ]
            }
          },
          "index": 4
        },
        "metallicRoughnessTexture": {
          "index": 5
        }
      }
    }
  ],
  "meshes": [
    {
      "name": "Body_Body_0",
      "primitives": [
        {
          "attributes": {
            "NORMAL": 1,
            "POSITION": 0,
            "TANGENT": 2,
            "TEXCOORD_0": 3
          },
          "indices": 4,
          "material": 0,
          "mode": 4
        }
      ]
    },
    {
      "name": "Body_Body_0",
      "primitives": [
        {
          "attributes": {
            "NORMAL": 6,
            "POSITION": 5,
            "TANGENT": 7,
            "TEXCOORD_0": 8
          },
          "indices": 9,
          "material": 0,
          "mode": 4
        }
      ]
    },
    {
      "name": "Body_Body_0",
      "primitives": [
        {
          "attributes": {
            "NORMAL": 11,
            "POSITION": 10,
            "TANGENT": 12,
            "TEXCOORD_0": 13
          },
          "indices": 14,
          "material": 0,
          "mode": 4
        }
      ]
    },
    {
      "name": "Legs_Legs_0",
      "primitives": [
        {
          "attributes": {
            "NORMAL": 16,
            "POSITION": 15,
            "TANGENT": 17,
            "TEXCOORD_0": 18
          },
          "indices": 19,
          "material": 1,
          "mode": 4
        }
      ]
    },
    {
      "name": "Legs_Legs_0",
      "primitives": [
        {
          "attributes": {
            "NORMAL": 21,
            "POSITION": 20,
            "TANGENT": 22,
            "TEXCOORD_0": 23
          },
          "indices": 24,
          "material": 1,
          "mode": 4
        }
      ]
    },
    {
      "name": "Legs_Legs_0",
      "primitives": [
        {
          "attributes": {
            "NORMAL": 26,
            "POSITION": 25,
            "TANGENT": 27,
            "TEXCOORD_0": 28
          },
          "indices": 29,
          "material": 1,
          "mode": 4
        }
      ]
    },
    {
      "name": "Legs_Legs_0",
      "primitives": [
        {
          "attributes": {
            "NORMAL": 31,
            "POSITION": 30,
            "TANGENT": 32,
            "TEXCOORD_0": 33
          },
          "indices": 34,
          "material": 1,
          "mode": 4
        }
      ]
    },
    {
      "name": "Legs_Legs_0",
      "primitives": [
        {
          "attributes": {
            "NORMAL": 36,
            "POSITION": 35,
            "TANGENT": 37,
            "TEXCOORD_0": 38
          },
          "indices": 39,
          "material": 1,
          "mode": 4
        }
      ]
    },
    {
      "name": "Legs_Legs_0",
      "primitives": [
        {
          "attributes": {
            "NORMAL": 41,
            "POSITION": 40,
            "TANGENT": 42,
            "TEXCOORD_0": 43
          },
          "indices": 44,
          "material": 1,
          "mode": 4
        }
      ]
    },
    {
      "name": "Lenses_Body_0",
      "primitives": [
        {
          "attributes": {
            "NORMAL": 46,
            "POSITION": 45,
            "TANGENT": 47,
            "TEXCOORD_0": 48
          },
          "indices": 49,
          "material": 0,
          "mode": 4
        }
      ]
    }
  ],
  "nodes": [
    {
      "children": [
        1
      ],
      "matrix": [
        1.0,
        0.0,
        0.0,
        0.0,
        0.0,
        2.220446049250313e-16,
        -1.0,
        0.0,
        0.0,
        1.0,
        2.220446049250313e-16,
        0.0,
        0.0,
        0.0,
        0.0,
        1.0
      ],
      "name": "Sketchfab_model"
    },
    {
      "children": [
        2
      ],
      "matrix": [
        0.009999999776482582,
        0.0,
        0.0,
        0.0,
        0.0,
        0.0,
        0.009999999776482582,
        0.0,
        0.0,
        -0.009999999776482582,
        0.0,
        0.0,
        0.0,
        0.0,
        0.0,
        1.0
      ],
      "name": "1b35927ccfc446c4914f355e8bc4ca21.fbx"
    },
    {
      "children": [
        3,
        7,
        14
      ],
      "name": "RootNode"
    },
    {
      "children": [
        4,
        5,
        6
      ],
      "matrix": [
        100.0,
        0.0,
        0.0,
        0.0,
        0.0,
        -1.629206793918314e-05,
        -99.99999999999868,
        0.0,
        0.0,
        99.99999999999868,
        -1.629206793918314e-05,
        0.0,
        0.0,
        0.0,
        0.0,
        1.0
      ],
      "name": "Body"
    },
    {
      "mesh": 0,
      "name": "Body_Body_0"
    },
    {
      "mesh": 1,
      "name": "Body_Body_0"
    },
    {
      "mesh": 2,
      "name": "Body_Body_0"
    },
    {
      "children": [
        8,
        9,
        10,
        11,
        12,
        13
      ],
      "matrix": [
        100.0,
        0.0,
        0.0,
        0.0,
        0.0,
        -1.629206793918314e-05,
        -99.99999999999868,
        0.0,
        0.0,
        99.99999999999868,
        -1.629206793918314e-05,
        0.0,
        0.0,
        0.0,
        0.0,
        1.0
      ],
      "name": "Legs"
    },
    {
      "mesh": 3,
      "name": "Legs_Legs_0"
    },
    {
      "mesh": 4,
      "name": "Legs_Legs_0"
    },
    {
      "mesh": 5,
      "name": "Legs_Legs_0"
    },
    {
      "mesh": 6,
      "name": "Legs_Legs_0"
    },
    {
      "mesh": 7,
      "name": "Legs_Legs_0"
    },
    {
      "mesh": 8,
      "name": "Legs_Legs_0"
    },
    {
      "children": [
        15
      ],
      "matrix": [
        100.0,
        0.0,
        0.0,
        0.0,
        0.0,
        -1.629206793918314e-05,
        -99.99999999999868,
        0.0,
        0.0,
        99.99999999999868,
        -1.629206793918314e-05,
        0.0,
        0.0028872047550976276,
        25.39244270324707,
        10.845929145812988,
        1.0
      ],
      "name": "Lenses"
    },
    {
      "mesh": 9,
      "name": "Lenses_Body_0"
    }
  ],
  "samplers": [
    {
      "magFilter": 9729,
      "minFilter": 9987,
      "wrapS": 10497,
      "wrapT": 10497
    }
  ],
  "scene": 0,
  "scenes": [
    {
      "name": "Sketchfab_Scene",
      "nodes": [
        0
      ]
    }
  ],
  "textures": [
    {
      "sampler": 0,
      "source": 0
    },
    {
      "sampler": 0,
      "source": 1
    },
    {
      "sampler": 0,
      "source": 2
    },
    {
      "sampler": 0,
      "source": 3
    },
    {
      "sampler": 0,
      "source": 4
    },
    {
      "sampler": 0,
      "source": 5
    },
    {
      "sampler": 0,
      "source": 6
    }
  ]
}
