{
  "accessors": [
    {
      "bufferView": 2,
      "componentType": 5126,
      "count": 1118,
      "max": [
        0.9999997019767761,
        0.9999987483024597,
        6.500308990478516
      ],
      "min": [
        -8.253996849060059,
        -1.0542885065078735,
        -1.0
      ],
      "type": "VEC3"
    },
    {
      "bufferView": 2,
      "byteOffset": 13416,
      "componentType": 5126,
      "count": 1118,
      "max": [
        1.0,
        1.0,
        1.0
      ],
      "min": [
        -1.0,
        -1.0,
        -1.0
      ],
      "type": "VEC3"
    },
    {
      "bufferView": 1,
      "componentType": 5126,
      "count": 1118,
      "max": [
        1.0000001192092896,
        1.0
      ],
      "min": [
        0.0,
        0.0
      ],
      "type": "VEC2"
    },
    {
      "bufferView": 0,
      "componentType": 5125,
      "count": 5760,
      "type": "SCALAR"
    },
    {
      "bufferView": 2,
      "byteOffset": 26832,
      "componentType": 5126,
      "count": 1118,
      "max": [
        0.9999997019767761,
        0.9999987483024597,
        1.9143575429916382
      ],
      "min": [
        -8.874869346618652,
        -1.0571928024291992,
        -1.0
      ],
      "type": "VEC3"
    },
    {
      "bufferView": 2,
      "byteOffset": 40248,
      "componentType": 5126,
      "count": 1118,
      "max": [
        1.0,
        1.0,
        1.0
      ],
      "min": [
        -1.0,
        -1.0,
        -1.0
      ],
      "type": "VEC3"
    },
    {
      "bufferView": 1,
      "byteOffset": 8944,
      "componentType": 5126,
      "count": 1118,
      "max": [
        1.0000001192092896,
        1.0
      ],
      "min": [
        0.0,
        0.0
      ],
      "type": "VEC2"
    },
    {
      "bufferView": 0,
      "byteOffset": 23040,
      "componentType": 5125,
      "count": 5760,
      "type": "SCALAR"
    },
    {
      "bufferView": 2,
      "byteOffset": 53664,
      "componentType": 5126,
      "count": 1180,
      "max": [
        0.984948992729187,
        0.7041905522346497,
        1.205819010734558
      ],
      "min": [
        -0.9849488735198975,
        -0.8015923500061035,
        -0.8333472013473511
      ],
      "type": "VEC3"
    },
    {
      "bufferView": 2,
      "byteOffset": 67824,
      "componentType": 5126,
      "count": 1180,
      "max": [
        0.994269609451294,
        0.9991127252578735,
        0.9991438388824463
      ],
      "min": [
        -0.994269609451294,
        -0.999998927116394,
        -0.9999762773513794
      ],
      "type": "VEC3"
    },
    {
      "bufferView": 1,
      "byteOffset": 17888,
      "componentType": 5126,
      "count": 1180,
      "max": [
        0.7500001788139343,
        0.8750001788139343
      ],
      "min": [
        0.25,
        0.3750000596046448
      ],
      "type": "VEC2"
    },
    {
      "bufferView": 0,
      "byteOffset": 46080,
      "componentType": 5125,
      "count": 5412,
      "type": "SCALAR"
    },
    {
      "bufferView": 2,
      "byteOffset": 81984,
      "componentType": 5126,
      "count": 707,
      "max": [
        1.213931679725647,
        1.2138835191726685,
        0.23883549869060516
      ],
      "min": [
        -1.2139317989349365,
        -1.195489525794983,
        -0.23883549869060516
      ],
      "type": "VEC3"
    },
    {
      "bufferView": 2,
      "byteOffset": 90468,
      "componentType": 5126,
      "count": 707,
      "max": [
        1.0,
        1.0,
        0.9999727010726929
      ],
      "min": [
        -1.0,
        -1.0,
        -0.9999727010726929
      ],
      "type": "VEC3"
    },
    {
      "bufferView": 1,
      "byteOffset": 27328,
      "componentType": 5126,
      "count": 707,
      "max": [
        1.0000001192092896,
        1.0000001192092896
      ],
      "min": [
        0.0555555559694767,
        2.220446049250313e-16
      ],
      "type": "VEC2"
    },
    {
      "bufferView": 0,
      "byteOffset": 67728,
      "componentType": 5125,
      "count": 2592,
      "type": "SCALAR"
    },
    {
      "bufferView": 2,
      "byteOffset": 98952,
      "componentType": 5126,
      "count": 712,
      "max": [
        1.213931679725647,
        1.195489525794983,
        0.23883549869060516
      ],
      "min": [
        -1.2139317989349365,
        -1.2138835191726685,
        -0.23883549869060516
      ],
      "type": "VEC3"
    },
    {
      "bufferView": 2,
      "byteOffset": 107496,
      "componentType": 5126,
      "count": 712,
      "max": [
        1.0,
        1.0,
        0.9999727010726929
      ],
      "min": [
        -1.0,
        -1.0,
        -0.9999727010726929
      ],
      "type": "VEC3"
    },
    {
      "bufferView": 1,
      "byteOffset": 32984,
      "componentType": 5126,
      "count": 712,
      "max": [
        0.9444445371627808,
        1.0000001192092896
      ],
      "min": [
        2.220446049250313e-16,
        2.220446049250313e-16
      ],
      "type": "VEC2"
    },
    {
      "bufferView": 0,
      "byteOffset": 78096,
      "componentType": 5125,
      "count": 2592,
      "type": "SCALAR"
    },
    {
      "bufferView": 2,
      "byteOffset": 116040,
      "componentType": 5126,
      "count": 109,
      "max": [
        0.9759443402290344,
        17.141496658325195,
        7.175399303436279
      ],
      "min": [
        -27.94269371032715,
        -0.9951837062835693,
        -0.9936355352401733
      ],
      "type": "VEC3"
    },
    {
      "bufferView": 2,
      "byteOffset": 117348,
      "componentType": 5126,
      "count": 109,
      "max": [
        0.9526321291923523,
        0.9939321279525757,
        0.9947572946548462
      ],
      "min": [
        -0.9675529599189758,
        -0.9939321279525757,
        -0.9808467626571655
      ],
      "type": "VEC3"
    },
    {
      "bufferView": 1,
      "byteOffset": 38680,
      "componentType": 5126,
      "count": 109,
      "max": [
        1.0,
        1.0
      ],
      "min": [
        0.0,
        0.0
      ],
      "type": "VEC2"
    },
    {
      "bufferView": 0,
      "byteOffset": 88464,
      "componentType": 5125,
      "count": 510,
      "type": "SCALAR"
    },
    {
      "bufferView": 2,
      "byteOffset": 118656,
      "componentType": 5126,
      "count": 39,
      "max": [
        0.7287749648094177,
        1.7888574600219727,
        -0.2632940113544464
      ],
      "min": [
        -0.617633044719696,
        0.7741619348526001,
        -0.9864425659179688
      ],
      "type": "VEC3"
    },
    {
      "bufferView": 2,
      "byteOffset": 119124,
      "componentType": 5126,
      "count": 39,
      "max": [
        0.9623952507972717,
        0.9993140697479248,
        0.9806225895881653
      ],
      "min": [
        -0.9795858860015869,
        -0.9998159408569336,
        -0.9636078476905823
      ],
      "type": "VEC3"
    },
    {
      "bufferView": 1,
      "byteOffset": 39552,
      "componentType": 5126,
      "count": 39,
      "max": [
        0.8750001192092896,
        1.0000001192092896
      ],
      "min": [
        0.1250000149011612,
        0.0
      ],
      "type": "VEC2"
    },
    {
      "bufferView": 0,
      "byteOffset": 90504,
      "componentType": 5125,
      "count": 144,
      "type": "SCALAR"
    },
    {
      "bufferView": 2,
      "byteOffset": 119592,
      "componentType": 5126,
      "count": 87,
      "max": [
        0.989515483379364,
        0.995480477809906,
        30.94403839111328
      ],
      "min": [
        -11.658808708190918,
        -9.109240531921387,
        -0.9936355352401733
      ],
      "type": "VEC3"
    },
    {
      "bufferView": 2,
      "byteOffset": 120636,
      "componentType": 5126,
      "count": 87,
      "max": [
        0.9702918529510498,
        0.986725926399231,
        0.3966911733150482
      ],
      "min": [
        -0.9978415369987488,
        -0.9990481734275818,
        -0.9755489230155945
      ],
      "type": "VEC3"
    },
    {
      "bufferView": 1,
      "byteOffset": 39864,
      "componentType": 5126,
      "count": 87,
      "max": [
        1.0,
        0.5000535249710083
      ],
      "min": [
        2.9802322387695313e-08,
        0.0
      ],
      "type": "VEC2"
    },
    {
      "bufferView": 0,
      "byteOffset": 91080,
      "componentType": 5125,
      "count": 354,
      "type": "SCALAR"
    }
  ],
  "asset": {
    "extras": {
      "author": "Kwituki (https://sketchfab.com/kwituki)",
      "license": "CC-BY-4.0 (http://creativecommons.org/licenses/by/4.0/)",
      "source": "https://sketchfab.com/3d-models/cute-frog-cd9868e6fe2e489a91d1595838fbc50d",
      "title": "Cute frog"
    },
    "generator": "Sketchfab-11.90.0",
    "version": "2.0"
  },
  "bufferViews": [
    {
      "buffer": 0,
      "byteLength": 92496,
      "name": "floatBufferViews",
      "target": 34963
    },
    {
      "buffer": 0,
      "byteLength": 40560,
      "byteOffset": 92496,
      "byteStride": 8,
      "name": "floatBufferViews",
      "target": 34962
    },
    {
      "buffer": 0,
      "byteLength": 121680,
      "byteOffset": 133056,
      "byteStride": 12,
      "name": "floatBufferViews",
      "target": 34962
    }
  ],
  "buffers": [
    {
      "byteLength": 254736,
      "uri": "scene.bin"
    }
  ],
  "materials": [
    {
      "doubleSided": true,
      "name": "Material.003",
      "pbrMetallicRoughness": {
        "metallicFactor": 0.0,
        "roughnessFactor": 0.0
      }
    },
    {
      "doubleSided": true,
      "name": "Material.002",
      "pbrMetallicRoughness": {
        "baseColorFactor": [
          0.0,
          0.0,
          0.0,
          1.0
        ],
        "metallicFactor": 0.0,
        "roughnessFactor": 0.0
      }
    },
    {
      "doubleSided": true,
      "name": "Material",
      "pbrMetallicRoughness": {
        "baseColorFactor": [
          0.27745698629985993,
          0.5540790912347202,
          0.12030216539467403,
          1.0
        ],
        "metallicFactor": 0.0,
        "roughnessFactor": 0.5
      }
    },
    {
      "doubleSided": true,
      "name": "Material.005",
      "pbrMetallicRoughness": {
        "baseColorFactor": [
          0.11710800000000002,
          0.40197899999999975,
          0.7999999999999999,
          1.0
        ],
        "metallicFactor": 0.0,
        "roughnessFactor": 0.3
      }
    },
    {
      "doubleSided": true,
      "name": "Material.006",
      "pbrMetallicRoughness": {
        "baseColorFactor": [
          0.5785239999999999,
          0.7771079999999997,
          0.7999999999999999,
          1.0
        ],
        "metallicFactor": 0.0,
        "roughnessFactor": 0.3
      }
    },
    {
      "doubleSided": true,
      "name": "Material.008",
      "pbrMetallicRoughness": {
        "baseColorFactor": [
          1.0,
          0.122164,
          0.1590009999999998,
          1.0
        ],
        "metallicFactor": 0.0,
        "roughnessFactor": 0.2
      }
    },
    {
      "doubleSided": true,
      "name": "Material.009",
      "pbrMetallicRoughness": {
        "baseColorFactor": [
          0.4774759999999999,
          0.7999999999999999,
          0.12319299999999997,
          1.0
        ],
        "metallicFactor": 0.0,
        "roughnessFactor": 0.2
      }
    }
  ],
  "meshes": [
    {
      "name": "Eye B_Material.003_0",
      "primitives": [
        {
          "attributes": {
            "NORMAL": 1,
            "POSITION": 0,
            "TEXCOORD_0": 2
          },
          "indices": 3,
          "material": 0,
          "mode": 4
        }
      ]
    },
    {
      "name": "Eye Z 2_Material.002_0",
      "primitives": [
        {
          "attributes": {
            "NORMAL": 5,
            "POSITION": 4,
            "TEXCOORD_0": 6
          },
          "indices": 7,
          "material": 1,
          "mode": 4
        }
      ]
    },
    {
      "name": "Frog_Material_0",
      "primitives": [
        {
          "attributes": {
            "NORMAL": 9,
            "POSITION": 8,
            "TEXCOORD_0": 10
          },
          "indices": 11,
          "material": 2,
          "mode": 4
        }
      ]
    },
    {
      "name": "Torus.002_Material.005_0",
      "primitives": [
        {
          "attributes": {
            "NORMAL": 13,
            "POSITION": 12,
            "TEXCOORD_0": 14
          },
          "indices": 15,
          "material": 3,
          "mode": 4
        }
      ]
    },
    {
      "name": "Torus.002_Material.006_0",
      "primitives": [
        {
          "attributes": {
            "NORMAL": 17,
            "POSITION": 16,
            "TEXCOORD_0": 18
          },
          "indices": 19,
          "material": 4,
          "mode": 4
        }
      ]
    },
    {
      "name": "Eye Z 2.001_Material.002_0",
      "primitives": [
        {
          "attributes": {
            "NORMAL": 21,
            "POSITION": 20,
            "TEXCOORD_0": 22
          },
          "indices": 23,
          "material": 1,
          "mode": 4
        }
      ]
    },
    {
      "name": "Cube_Material.008_0",
      "primitives": [
        {
          "attributes": {
            "NORMAL": 25,
            "POSITION": 24,
            "TEXCOORD_0": 26
          },
          "indices": 27,
          "material": 5,
          "mode": 4
        }
      ]
    },
    {
      "name": "Eye Z 2.002_Material.009_0",
      "primitives": [
        {
          "attributes": {
            "NORMAL": 29,
            "POSITION": 28,
            "TEXCOORD_0": 30
          },
          "indices": 31,
          "material": 6,
          "mode": 4
        }
      ]
    }
  ],
  "nodes": [
    {
      "children": [
        1
      ],
      "matrix": [
        1.0,
        0.0,
        0.0,
        0.0,
        0.0,
        2.220446049250313e-16,
        -1.0,
        0.0,
        0.0,
        1.0,
        2.220446049250313e-16,
        0.0,
        0.0,
        0.0,
        0.0,
        1.0
      ],
      "name": "Sketchfab_model"
    },
    {
      "children": [
        2
      ],
      "matrix": [
        0.009999999776482582,
        0.0,
        0.0,
        0.0,
        0.0,
        0.0,
        0.009999999776482582,
        0.0,
        0.0,
        -0.009999999776482582,
        0.0,
        0.0,
        0.0,
        0.0,
        0.0,
        1.0
      ],
      "name": "frog-sf.fbx"
    },
    {
      "children": [
        3,
        5,
        7,
        9,
        12,
        14,
        16
      ],
      "name": "RootNode"
    },
    {
      "children": [
        4
      ],
      "matrix": [
        15.619393206392616,
        -0.2838112674414414,
        -3.2005175350574415,
        0.0,
        0.11591909877424172,
        -15.824003776591091,
        1.9689367368533788,
        0.0,
        -0.9835453181247379,
        -0.5978550041093862,
        -4.746951987364016,
        0.0,
        59.66162109375,
        321.3142395019531,
        13.254210472106934,
        1.0
      ],
      "name": "Eye B"
    },
    {
      "mesh": 0,
      "name": "Eye B_Material.003_0"
    },
    {
      "children": [
        6
      ],
      "matrix": [
        14.529368049592529,
        0.04259895684113026,
        -0.5130407666706084,
        0.0,
        0.10568420730686397,
        -14.426849171396007,
        1.7950932549895329,
        0.0,
        -0.15432989209907938,
        -0.5506461113583229,
        -4.416360064323363,
        0.0,
        57.29851150512695,
        323.0481262207031,
        16.686412811279297,
        1.0
      ],
      "name": "Eye Z 2"
    },
    {
      "mesh": 1,
      "name": "Eye Z 2_Material.002_0"
    },
    {
      "children": [
        8
      ],
      "matrix": [
        100.0,
        0.0,
        0.0,
        0.0,
        0.0,
        -1.629206793918314e-05,
        -99.99999999999868,
        0.0,
        0.0,
        99.99999999999868,
        -1.629206793918314e-05,
        0.0,
        0.0,
        222.62814331054688,
        0.0,
        1.0
      ],
      "name": "Frog"
    },
    {
      "mesh": 2,
      "name": "Frog_Material_0"
    },
    {
      "children": [
        10,
        11
      ],
      "matrix": [
        87.05130004882813,
        -6.553871681736319e-16,
        -1.1114436010353541e-17,
        0.0,
        1.0208457239343804e-17,
        2.711156335397338,
        -79.91387040484271,
        0.0,
        7.687847884732416e-16,
        102.05453666043233,
        3.4623001266398936,
        0.0,
        0.0,
        232.04579162597656,
        3.5251922607421875,
        1.0
      ],
      "name": "Torus.002"
    },
    {
      "mesh": 3,
      "name": "Torus.002_Material.005_0"
    },
    {
      "mesh": 4,
      "name": "Torus.002_Material.006_0"
    },
    {
      "children": [
        13
      ],
      "matrix": [
        3.9928431859356914,
        -1.7610531723589464,
        -0.15409315176592728,
        0.0,
        -1.2792190094787714,
        -2.9352379529795183,
        0.3983902120419611,
        0.0,
        -0.14180804974989247,
        -0.17126675956321277,
        -1.7171913993180097,
        0.0,
        64.74647521972656,
        339.572509765625,
        16.807659149169922,
        1.0
      ],
      "name": "Eye Z 2.001"
    },
    {
      "mesh": 5,
      "name": "Eye Z 2.001_Material.002_0"
    },
    {
      "children": [
        15
      ],
      "matrix": [
        14.30990219116211,
        0.0,
        0.0,
        0.0,
        -0.0,
        -2.331378987014788e-06,
        -14.309902191161921,
        0.0,
        0.0,
        14.309902191161921,
        -2.331378987014788e-06,
        0.0,
        -0.7287283539772034,
        296.8619079589844,
        63.25093078613281,
        1.0
      ],
      "name": "Cube"
    },
    {
      "mesh": 6,
      "name": "Cube_Material.008_0"
    },
    {
      "children": [
        17
      ],
      "matrix": [
        4.8951963898326385,
        -0.35745609985200466,
        -5.3262830162671815,
        0.0,
        3.7031969462666017,
        -4.977665273145749,
        3.737535740461368,
        0.0,
        -1.177722968062422,
        -1.607892113048941,
        -0.9744946638991203,
        0.0,
        58.512107849121094,
        297.158203125,
        22.869571685791016,
        1.0
      ],
      "name": "Eye Z 2.002"
    },
    {
      "mesh": 7,
      "name": "Eye Z 2.002_Material.009_0"
    }
  ],
  "scene": 0,
  "scenes": [
    {
      "name": "Sketchfab_Scene",
      "nodes": [
        0
      ]
    }
  ]
}
