{
  "accessors": [
    {
      "bufferView": 2,
      "componentType": 5126,
      "count": 180,
      "max": [
        5.646039962768555,
        54.142494201660156,
        11.408136367797852
      ],
      "min": [
        -5.646039962768555,
        50.90424728393555,
        8.425228118896484
      ],
      "type": "VEC3"
    },
    {
      "bufferView": 2,
      "byteOffset": 2160,
      "componentType": 5126,
      "count": 180,
      "max": [
        0.9969727396965027,
        0.8470175266265869,
        0.9999657273292542
      ],
      "min": [
        -0.9969726800918579,
        -0.6893900632858276,
        -0.6864976286888123
      ],
      "type": "VEC3"
    },
    {
      "bufferView": 1,
      "componentType": 5126,
      "count": 180,
      "max": [
        0.9780661463737488,
        0.9426200985908508
      ],
      "min": [
        0.012895740568637848,
        0.0382256954908371
      ],
      "type": "VEC2"
    },
    {
      "bufferView": 0,
      "componentType": 5125,
      "count": 864,
      "type": "SCALAR"
    },
    {
      "bufferView": 2,
      "byteOffset": 4320,
      "componentType": 5126,
      "count": 11597,
      "max": [
        66.70687866210938,
        67.79653930664063,
        19.185813903808594
      ],
      "min": [
        -66.70687866210938,
        -0.12785065174102783,
        -46.75563049316406
      ],
      "type": "VEC3"
    },
    {
      "bufferView": 2,
      "byteOffset": 143484,
      "componentType": 5126,
      "count": 11597,
      "max": [
        0.9999257326126099,
        0.9999974966049194,
        0.9999465942382813
      ],
      "min": [
        -0.9999257922172546,
        -0.9997273087501526,
        -0.999968945980072
      ],
      "type": "VEC3"
    },
    {
      "bufferView": 3,
      "componentType": 5126,
      "count": 11597,
      "max": [
        0.9999998807907104,
        0.999904453754425,
        0.9999377727508545,
        1.0
      ],
      "min": [
        -0.9999996423721313,
        -0.9998931288719177,
        -0.9997363090515137,
        -1.0
      ],
      "type": "VEC4"
    },
    {
      "bufferView": 1,
      "byteOffset": 1440,
      "componentType": 5126,
      "count": 11597,
      "max": [
        0.9966485500335693,
        0.9972971677780151
      ],
      "min": [
        0.0031330883502960205,
        0.0027414262294769287
      ],
      "type": "VEC2"
    },
    {
      "bufferView": 0,
      "byteOffset": 3456,
      "componentType": 5125,
      "count": 55233,
      "type": "SCALAR"
    }
  ],
  "asset": {
    "extras": {
      "author": "MasterVi (https://sketchfab.com/MasterVi)",
      "license": "CC-BY-4.0 (http://creativecommons.org/licenses/by/4.0/)",
      "source": "https://sketchfab.com/3d-models/sea-of-thieves-cockatoo-fan-model-bf3991f561774bfea9e0a0c1933cd2f6",
      "title": "Sea of Thieves Cockatoo - Fan Model"
    },
    "generator": "Sketchfab-11.91.0",
    "version": "2.0"
  },
  "bufferViews": [
    {
      "buffer": 0,
      "byteLength": 224388,
      "name": "floatBufferViews",
      "target": 34963
    },
    {
      "buffer": 0,
      "byteLength": 94216,
      "byteOffset": 224388,
      "byteStride": 8,
      "name": "floatBufferViews",
      "target": 34962
    },
    {
      "buffer": 0,
      "byteLength": 282648,
      "byteOffset": 318604,
      "byteStride": 12,
      "name": "floatBufferViews",
      "target": 34962
    },
    {
      "buffer": 0,
      "byteLength": 185552,
      "byteOffset": 601252,
      "byteStride": 16,
      "name": "floatBufferViews",
      "target": 34962
    }
  ],
  "buffers": [
    {
      "byteLength": 786804,
      "uri": "scene.bin"
    }
  ],
  "images": [
    {
      "uri": "textures/T_Eyes_baseColor.png"
    },
    {
      "uri": "textures/T_Eyes_metallicRoughness.png"
    },
    {
      "uri": "textures/T_Body_baseColor.png"
    },
    {
      "uri": "textures/T_Body_metallicRoughness.png"
    },
    {
      "uri": "textures/T_Body_normal.png"
    }
  ],
  "materials": [
    {
      "doubleSided": true,
      "name": "T_Eyes",
      "pbrMetallicRoughness": {
        "baseColorTexture": {
          "index": 0
        },
        "metallicRoughnessTexture": {
          "index": 1
        },
        "roughnessFactor": 0.6
      }
    },
    {
      "doubleSided": true,
      "name": "T_Body",
      "normalTexture": {
        "index": 4
      },
      "pbrMetallicRoughness": {
        "baseColorTexture": {
          "index": 2
        },
        "metallicRoughnessTexture": {
          "index": 3
        }
      }
    }
  ],
  "meshes": [
    {
      "name": "SM_Cockatoo_T_Eyes_0",
      "primitives": [
        {
          "attributes": {
            "NORMAL": 1,
            "POSITION": 0,
            "TEXCOORD_0": 2
          },
          "indices": 3,
          "material": 0,
          "mode": 4
        }
      ]
    },
    {
      "name": "SM_Cockatoo_T_Body_0",
      "primitives": [
        {
          "attributes": {
            "NORMAL": 5,
            "POSITION": 4,
            "TANGENT": 6,
            "TEXCOORD_0": 7
          },
          "indices": 8,
          "material": 1,
          "mode": 4
        }
      ]
    }
  ],
  "nodes": [
    {
      "children": [
        1
      ],
      "matrix": [
        1.0,
        0.0,
        0.0,
        0.0,
        0.0,
        2.220446049250313e-16,
        -1.0,
        0.0,
        0.0,
        1.0,
        2.220446049250313e-16,
        0.0,
        0.0,
        0.0,
        0.0,
        1.0
      ],
      "name": "Sketchfab_model"
    },
    {
      "children": [
        2
      ],
      "matrix": [
        0.009999999776482582,
        0.0,
        0.0,
        0.0,
        0.0,
        0.0,
        0.009999999776482582,
        0.0,
        0.0,
        -0.009999999776482582,
        0.0,
        0.0,
        0.0,
        0.0,
        0.0,
        1.0
      ],
      "name": "SM_Coockatoo.fbx"
    },
    {
      "children": [
        3
      ],
      "name": "RootNode"
    },
    {
      "children": [
        4,
        5
      ],
      "name": "SM_Cockatoo"
    },
    {
      "mesh": 0,
      "name": "SM_Cockatoo_T_Eyes_0"
    },
    {
      "mesh": 1,
      "name": "SM_Cockatoo_T_Body_0"
    }
  ],
  "samplers": [
    {
      "magFilter": 9729,
      "minFilter": 9987,
      "wrapS": 10497,
      "wrapT": 10497
    }
  ],
  "scene": 0,
  "scenes": [
    {
      "name": "Sketchfab_Scene",
      "nodes": [
        0
      ]
    }
  ],
  "textures": [
    {
      "sampler": 0,
      "source": 0
    },
    {
      "sampler": 0,
      "source": 1
    },
    {
      "sampler": 0,
      "source": 2
    },
    {
      "sampler": 0,
      "source": 3
    },
    {
      "sampler": 0,
      "source": 4
    }
  ]
}
